<?xml version="1.0" encoding="UTF-8"?>
<svg xmlns="http://www.w3.org/2000/svg" xmlns:xlink="http://www.w3.org/1999/xlink" width="100px" height="100px" viewBox="0 0 21 14" version="1.1">
<g id="surface1">
<path style=" stroke:none;fill-rule:nonzero;fill:#515151;fill-opacity:1;" d="M 10.9375 5.746094 C 10.9375 5.925781 10.789062 6.074219 10.609375 6.074219 C 10.425781 6.074219 10.28125 5.925781 10.28125 5.746094 C 10.28125 5.5625 10.421875 5.417969 10.609375 5.417969 C 10.796875 5.421875 10.9375 5.570312 10.9375 5.746094 Z M 9.585938 6.40625 L 9.585938 6.488281 C 9.585938 6.488281 9.429688 6.285156 9.09375 6.285156 C 8.542969 6.285156 8.117188 6.703125 8.117188 7.285156 C 8.117188 7.859375 8.539062 8.285156 9.09375 8.285156 C 9.433594 8.285156 9.585938 8.078125 9.585938 8.078125 L 9.585938 8.164062 C 9.585938 8.203125 9.613281 8.234375 9.65625 8.234375 L 10.0625 8.234375 L 10.0625 6.335938 L 9.65625 6.335938 C 9.613281 6.335938 9.585938 6.371094 9.585938 6.40625 Z M 9.585938 7.625 C 9.507812 7.734375 9.355469 7.832031 9.175781 7.832031 C 8.851562 7.832031 8.605469 7.628906 8.605469 7.285156 C 8.605469 6.941406 8.851562 6.738281 9.175781 6.738281 C 9.351562 6.738281 9.511719 6.839844 9.585938 6.945312 Z M 10.367188 6.335938 L 10.851562 6.335938 L 10.851562 8.234375 L 10.367188 8.234375 Z M 17.601562 6.285156 C 17.269531 6.285156 17.113281 6.488281 17.113281 6.488281 L 17.113281 5.421875 L 16.628906 5.421875 L 16.628906 8.234375 L 17.039062 8.234375 C 17.078125 8.234375 17.109375 8.199219 17.109375 8.164062 L 17.109375 8.078125 C 17.109375 8.078125 17.265625 8.285156 17.597656 8.285156 C 18.148438 8.285156 18.578125 7.859375 18.578125 7.285156 C 18.578125 6.710938 18.148438 6.285156 17.601562 6.285156 Z M 17.523438 7.824219 C 17.335938 7.824219 17.1875 7.730469 17.113281 7.617188 L 17.113281 6.941406 C 17.1875 6.839844 17.351562 6.734375 17.523438 6.734375 C 17.84375 6.734375 18.09375 6.9375 18.09375 7.28125 C 18.09375 7.625 17.84375 7.824219 17.523438 7.824219 Z M 16.375 7.109375 L 16.375 8.238281 L 15.890625 8.238281 L 15.890625 7.164062 C 15.890625 6.851562 15.792969 6.726562 15.519531 6.726562 C 15.371094 6.726562 15.222656 6.800781 15.125 6.910156 L 15.125 8.234375 L 14.640625 8.234375 L 14.640625 6.335938 L 15.023438 6.335938 C 15.066406 6.335938 15.09375 6.371094 15.09375 6.40625 L 15.09375 6.488281 C 15.234375 6.339844 15.421875 6.285156 15.609375 6.285156 C 15.820312 6.285156 16 6.347656 16.140625 6.46875 C 16.3125 6.609375 16.375 6.789062 16.375 7.109375 Z M 13.464844 6.285156 C 13.132812 6.285156 12.976562 6.488281 12.976562 6.488281 L 12.976562 5.421875 L 12.492188 5.421875 L 12.492188 8.234375 L 12.898438 8.234375 C 12.941406 8.234375 12.96875 8.199219 12.96875 8.164062 L 12.96875 8.078125 C 12.96875 8.078125 13.125 8.285156 13.460938 8.285156 C 14.011719 8.285156 14.4375 7.859375 14.4375 7.285156 C 14.445312 6.710938 14.015625 6.285156 13.464844 6.285156 Z M 13.382812 7.824219 C 13.199219 7.824219 13.050781 7.730469 12.976562 7.617188 L 12.976562 6.941406 C 13.050781 6.839844 13.210938 6.734375 13.382812 6.734375 C 13.707031 6.734375 13.953125 6.9375 13.953125 7.28125 C 13.953125 7.625 13.707031 7.824219 13.382812 7.824219 Z M 12.070312 6.285156 C 12.21875 6.285156 12.292969 6.3125 12.292969 6.3125 L 12.292969 6.761719 C 12.292969 6.761719 11.890625 6.625 11.636719 6.910156 L 11.636719 8.238281 L 11.152344 8.238281 L 11.152344 6.335938 L 11.5625 6.335938 C 11.601562 6.335938 11.632812 6.371094 11.632812 6.40625 L 11.632812 6.488281 C 11.722656 6.382812 11.921875 6.285156 12.070312 6.285156 Z M 7.039062 8.0625 C 7.015625 8 6.992188 7.9375 6.964844 7.878906 C 6.925781 7.789062 6.882812 7.703125 6.847656 7.625 L 6.84375 7.617188 C 6.496094 6.859375 6.121094 6.09375 5.730469 5.335938 L 5.714844 5.308594 C 5.671875 5.230469 5.632812 5.152344 5.59375 5.070312 C 5.542969 4.980469 5.492188 4.882812 5.410156 4.792969 C 5.25 4.589844 5.015625 4.480469 4.769531 4.480469 C 4.519531 4.480469 4.289062 4.589844 4.125 4.78125 C 4.046875 4.871094 3.992188 4.96875 3.941406 5.058594 C 3.902344 5.140625 3.863281 5.222656 3.820312 5.296875 L 3.804688 5.328125 C 3.417969 6.085938 3.039062 6.851562 2.691406 7.609375 L 2.6875 7.617188 C 2.652344 7.699219 2.609375 7.785156 2.570312 7.875 C 2.542969 7.929688 2.519531 7.992188 2.496094 8.058594 C 2.429688 8.242188 2.410156 8.421875 2.433594 8.601562 C 2.488281 8.980469 2.742188 9.296875 3.089844 9.441406 C 3.222656 9.496094 3.355469 9.519531 3.5 9.519531 C 3.539062 9.519531 3.589844 9.515625 3.628906 9.511719 C 3.796875 9.492188 3.96875 9.433594 4.132812 9.339844 C 4.339844 9.222656 4.539062 9.054688 4.761719 8.8125 C 4.980469 9.054688 5.183594 9.222656 5.386719 9.339844 C 5.550781 9.433594 5.722656 9.492188 5.890625 9.511719 C 5.929688 9.515625 5.980469 9.519531 6.023438 9.519531 C 6.164062 9.519531 6.304688 9.496094 6.429688 9.441406 C 6.785156 9.296875 7.03125 8.976562 7.085938 8.601562 C 7.125 8.425781 7.105469 8.25 7.039062 8.0625 Z M 4.765625 8.324219 C 4.492188 7.980469 4.316406 7.660156 4.253906 7.386719 C 4.230469 7.269531 4.226562 7.167969 4.238281 7.078125 C 4.25 6.996094 4.28125 6.925781 4.320312 6.867188 C 4.417969 6.730469 4.578125 6.644531 4.765625 6.644531 C 4.953125 6.644531 5.117188 6.726562 5.210938 6.867188 C 5.25 6.925781 5.28125 6.996094 5.289062 7.078125 C 5.304688 7.167969 5.300781 7.273438 5.273438 7.386719 C 5.214844 7.652344 5.039062 7.976562 4.765625 8.324219 Z M 6.777344 8.5625 C 6.742188 8.824219 6.566406 9.050781 6.320312 9.152344 C 6.199219 9.203125 6.066406 9.21875 5.9375 9.203125 C 5.808594 9.1875 5.683594 9.148438 5.550781 9.070312 C 5.371094 8.96875 5.1875 8.8125 4.976562 8.582031 C 5.308594 8.171875 5.511719 7.800781 5.585938 7.464844 C 5.621094 7.308594 5.628906 7.167969 5.613281 7.039062 C 5.59375 6.910156 5.546875 6.796875 5.476562 6.695312 C 5.320312 6.46875 5.058594 6.335938 4.765625 6.335938 C 4.472656 6.335938 4.210938 6.472656 4.054688 6.695312 C 3.984375 6.796875 3.9375 6.910156 3.917969 7.039062 C 3.898438 7.167969 3.902344 7.316406 3.941406 7.464844 C 4.019531 7.800781 4.226562 8.179688 4.554688 8.585938 C 4.347656 8.820312 4.160156 8.976562 3.976562 9.078125 C 3.847656 9.152344 3.71875 9.191406 3.59375 9.207031 C 3.457031 9.222656 3.328125 9.203125 3.210938 9.15625 C 2.964844 9.054688 2.785156 8.828125 2.75 8.566406 C 2.738281 8.441406 2.746094 8.316406 2.796875 8.171875 C 2.8125 8.121094 2.835938 8.074219 2.863281 8.011719 C 2.898438 7.929688 2.9375 7.84375 2.980469 7.757812 L 2.984375 7.75 C 3.332031 6.996094 3.707031 6.230469 4.09375 5.484375 L 4.109375 5.453125 C 4.148438 5.378906 4.191406 5.296875 4.230469 5.222656 C 4.269531 5.140625 4.316406 5.066406 4.371094 5 C 4.476562 4.878906 4.617188 4.8125 4.773438 4.8125 C 4.929688 4.8125 5.074219 4.878906 5.179688 5 C 5.234375 5.066406 5.28125 5.140625 5.320312 5.222656 C 5.359375 5.296875 5.402344 5.378906 5.441406 5.453125 L 5.457031 5.484375 C 5.839844 6.234375 6.214844 7.003906 6.5625 7.753906 L 6.5625 7.757812 C 6.601562 7.839844 6.636719 7.929688 6.675781 8.011719 C 6.703125 8.074219 6.726562 8.121094 6.742188 8.171875 C 6.785156 8.304688 6.796875 8.429688 6.777344 8.5625 Z M 6.777344 8.5625 "/>
</g>
</svg>
