<?xml version="1.0" encoding="UTF-8"?>
<svg xmlns="http://www.w3.org/2000/svg" xmlns:xlink="http://www.w3.org/1999/xlink" width="100px" height="100px" viewBox="0 0 21 14" version="1.1">
<g id="surface1">
<path style="stroke: none; fill-rule: nonzero; fill: #d3d3d3; fill-opacity: 0.5;" d="M 9.335938 7.140625 C 9.335938 7.90625 8.738281 8.46875 8.003906 8.46875 C 7.269531 8.46875 6.671875 7.90625 6.671875 7.140625 C 6.671875 6.371094 7.269531 5.8125 8.003906 5.8125 C 8.738281 5.8125 9.335938 6.371094 9.335938 7.140625 Z M 8.753906 7.140625 C 8.753906 6.660156 8.40625 6.335938 8.003906 6.335938 C 7.601562 6.335938 7.253906 6.660156 7.253906 7.140625 C 7.253906 7.613281 7.601562 7.945312 8.003906 7.945312 C 8.40625 7.945312 8.753906 7.613281 8.753906 7.140625 Z M 8.753906 7.140625 "/>
<path style=" stroke: none; fill-rule: nonzero; fill:#d3d3d3; fill-opacity: 0.5;" d="M 12.210938 7.140625 C 12.210938 7.90625 11.613281 8.46875 10.878906 8.46875 C 10.144531 8.46875 9.546875 7.90625 9.546875 7.140625 C 9.546875 6.371094 10.144531 5.8125 10.878906 5.8125 C 11.613281 5.8125 12.210938 6.371094 12.210938 7.140625 Z M 11.628906 7.140625 C 11.628906 6.660156 11.28125 6.335938 10.878906 6.335938 C 10.476562 6.335938 10.128906 6.660156 10.128906 7.140625 C 10.128906 7.613281 10.476562 7.945312 10.878906 7.945312 C 11.28125 7.945312 11.628906 7.613281 11.628906 7.140625 Z M 11.628906 7.140625 "/>
<path style=" stroke: none; fill-rule: nonzero;fill :#d3d3d3; fill-opacity: 0.5;" d="M 14.96875 5.890625 L 14.96875 8.277344 C 14.96875 9.257812 14.390625 9.660156 13.703125 9.660156 C 13.058594 9.660156 12.671875 9.226562 12.527344 8.875 L 13.035156 8.664062 C 13.125 8.878906 13.347656 9.136719 13.703125 9.136719 C 14.140625 9.136719 14.414062 8.867188 14.414062 8.355469 L 14.414062 8.164062 L 14.394531 8.164062 C 14.261719 8.328125 14.011719 8.46875 13.691406 8.46875 C 13.027344 8.46875 12.421875 7.890625 12.421875 7.144531 C 12.421875 6.394531 13.027344 5.8125 13.691406 5.8125 C 14.011719 5.8125 14.261719 5.953125 14.394531 6.109375 L 14.414062 6.109375 L 14.414062 5.890625 Z M 14.453125 7.144531 C 14.453125 6.675781 14.140625 6.335938 13.746094 6.335938 C 13.34375 6.335938 13.003906 6.675781 13.003906 7.144531 C 13.003906 7.609375 13.34375 7.945312 13.746094 7.945312 C 14.140625 7.945312 14.453125 7.609375 14.453125 7.144531 Z M 14.453125 7.144531 "/>
<path style=" stroke: none; fill-rule: nonzero; fill: #d3d3d3; fill-opacity: 0.5;" d="M 15.882812 4.492188 L 15.882812 8.386719 L 15.3125 8.386719 L 15.3125 4.492188 Z M 15.882812 4.492188 "/>
<path style=" stroke: none; fill-rule: nonzero; fill: #d3d3d3; fill-opacity: 0.5;" d="M 18.097656 7.578125 L 18.550781 7.878906 C 18.40625 8.09375 18.054688 8.46875 17.445312 8.46875 C 16.691406 8.46875 16.125 7.882812 16.125 7.140625 C 16.125 6.347656 16.695312 5.808594 17.378906 5.808594 C 18.070312 5.808594 18.40625 6.359375 18.515625 6.65625 L 18.578125 6.804688 L 16.800781 7.542969 C 16.9375 7.808594 17.148438 7.945312 17.445312 7.945312 C 17.742188 7.945312 17.949219 7.796875 18.097656 7.578125 Z M 16.703125 7.097656 L 17.890625 6.605469 C 17.828125 6.441406 17.628906 6.324219 17.398438 6.324219 C 17.101562 6.324219 16.691406 6.585938 16.703125 7.097656 Z M 16.703125 7.097656 "/>
<path style=" stroke: none; fill-rule: nonzero; fill: #d3d3d3; fill-opacity: 0.5;" d="M 4.515625 6.792969 L 4.515625 6.230469 L 6.414062 6.230469 C 6.433594 6.328125 6.445312 6.445312 6.445312 6.570312 C 6.445312 6.992188 6.328125 7.515625 5.957031 7.890625 C 5.59375 8.265625 5.128906 8.46875 4.515625 8.46875 C 3.378906 8.46875 2.421875 7.542969 2.421875 6.40625 C 2.421875 5.265625 3.378906 4.339844 4.515625 4.339844 C 5.144531 4.339844 5.59375 4.589844 5.929688 4.910156 L 5.53125 5.308594 C 5.289062 5.082031 4.964844 4.90625 4.515625 4.90625 C 3.683594 4.90625 3.035156 5.574219 3.035156 6.40625 C 3.035156 7.234375 3.683594 7.902344 4.515625 7.902344 C 5.054688 7.902344 5.359375 7.6875 5.558594 7.492188 C 5.71875 7.332031 5.820312 7.105469 5.863281 6.792969 Z M 4.515625 6.792969 "/>
</g>
</svg>
