<svg width="80" height="80" viewBox="0 0 80 80" fill="none" xmlns="http://www.w3.org/2000/svg">
<path d="M73.3333 20V28.0667C73.3333 33.3334 69.9999 36.6667 64.7333 36.6667H53.3333V13.3667C53.3333 9.66669 56.3667 6.66669 60.0667 6.66669C63.7001 6.70002 67.0334 8.16669 69.4334 10.5667C71.8334 13 73.3333 16.3334 73.3333 20Z" stroke="white" stroke-width="1.5" stroke-miterlimit="10" stroke-linecap="round" stroke-linejoin="round"/>
<path d="M6.66666 23.3334V70C6.66666 72.7667 9.79991 74.3334 11.9999 72.6667L17.7 68.4C19.0333 67.4 20.9 67.5334 22.1 68.7334L27.6332 74.3C28.9332 75.6 31.0667 75.6 32.3667 74.3L37.9667 68.7C39.1334 67.5334 41 67.4 42.3 68.4L48.0001 72.6667C50.2001 74.3 53.3333 72.7334 53.3333 70V13.3334C53.3333 9.66669 56.3333 6.66669 60 6.66669H23.3333H20C9.99999 6.66669 6.66666 12.6334 6.66666 20V23.3334Z" stroke="white" stroke-width="1.5" stroke-miterlimit="10" stroke-linecap="round" stroke-linejoin="round"/>
<path d="M20 30H40" stroke="#EC5242" stroke-width="1.5" stroke-linecap="round" stroke-linejoin="round"/>
<path d="M22.5 43.3333H37.5" stroke="#EC5242" stroke-width="1.5" stroke-linecap="round" stroke-linejoin="round"/>
</svg>
