<svg width="80" height="80" viewBox="0 0 80 80" fill="none" xmlns="http://www.w3.org/2000/svg">
<path d="M73.3333 20.8334V37.8333C73.3333 42.0666 71.9333 45.6333 69.4333 48.1C66.9667 50.6 63.4 51.9999 59.1667 51.9999V58.0333C59.1667 60.2999 56.6333 61.6667 54.7666 60.4L51.5334 58.2666C51.8334 57.2333 51.9667 56.0999 51.9667 54.8999V41.3334C51.9667 34.5334 47.4333 30 40.6333 30H18C17.5333 30 17.1 30.0334 16.6667 30.0668V20.8334C16.6667 12.3334 22.3333 6.66669 30.8333 6.66669H59.1667C67.6667 6.66669 73.3333 12.3334 73.3333 20.8334Z" fill="#EC5242" stroke="white" stroke-width="1.5" stroke-miterlimit="10" stroke-linecap="round" stroke-linejoin="round"/>
<path d="M51.9667 41.3334V54.8999C51.9667 56.0999 51.8334 57.2333 51.5334 58.2666C50.3 63.1666 46.2333 66.2333 40.6333 66.2333H31.5667L21.5 72.9334C20 73.9667 18 72.8667 18 71.0667V66.2333C14.6 66.2333 11.7667 65.1 9.80001 63.1333C7.80001 61.1333 6.66667 58.2999 6.66667 54.8999V41.3334C6.66667 35.0001 10.6 30.6334 16.6667 30.0667C17.1 30.0334 17.5333 30 18 30H40.6333C47.4333 30 51.9667 34.5334 51.9667 41.3334Z" stroke="white" stroke-width="1.5" stroke-miterlimit="10" stroke-linecap="round" stroke-linejoin="round"/>
</svg>
