<svg width="80" height="80" viewBox="0 0 80 80" fill="none" xmlns="http://www.w3.org/2000/svg">
<path d="M33.5 8.43333L13.4333 21.5333C7 25.7333 7 35.1333 13.4333 39.3333L33.5 52.4333C37.1 54.8 43.0333 54.8 46.6333 52.4333L66.6 39.3333C73 35.1333 73 25.7667 66.6 21.5667L46.6333 8.46666C43.0333 6.06666 37.1 6.06666 33.5 8.43333Z" stroke="white" stroke-width="1.5" stroke-linecap="round" stroke-linejoin="round"/>
<path d="M18.7667 43.6L18.7333 59.2333C18.7333 63.4666 22 68 26 69.3333L36.6333 72.8666C38.4667 73.4666 41.5 73.4666 43.3667 72.8666L54 69.3333C58 68 61.2667 63.4666 61.2667 59.2333V43.7666" stroke="white" stroke-width="1.5" stroke-linecap="round" stroke-linejoin="round"/>
<path d="M71.3333 50V30" stroke="#EC5242" stroke-width="1.5" stroke-linecap="round" stroke-linejoin="round"/>
</svg>
