<svg width="80" height="80" viewBox="0 0 80 80" fill="none" xmlns="http://www.w3.org/2000/svg">
<path d="M73.0999 22.5334L61.8666 67.6335C61.0666 71.0002 58.0666 73.3334 54.6 73.3334H10.7999C5.76659 73.3334 2.16664 68.3998 3.66664 63.5665L17.6999 18.5002C18.6666 15.3668 21.5667 13.1999 24.8333 13.1999H65.8333C69 13.1999 71.6333 15.1332 72.7333 17.7999C73.3666 19.2332 73.4999 20.8667 73.0999 22.5334Z" stroke="white" stroke-width="1.5" stroke-miterlimit="10"/>
<path d="M53.3333 73.3333H69.2667C73.5667 73.3333 76.9333 69.7 76.6333 65.4L73.3333 20" stroke="white" stroke-width="1.5" stroke-miterlimit="10" stroke-linecap="round" stroke-linejoin="round"/>
<path d="M32.2666 21.2667L35.7333 6.86688" stroke="#EC5242" stroke-width="1.5" stroke-miterlimit="10" stroke-linecap="round" stroke-linejoin="round"/>
<path d="M54.6 21.3L57.7334 6.8335" stroke="#EC5242" stroke-width="1.5" stroke-miterlimit="10" stroke-linecap="round" stroke-linejoin="round"/>
<path d="M25.6667 40H52.3334" stroke="#EC5242" stroke-width="1.5" stroke-miterlimit="10" stroke-linecap="round" stroke-linejoin="round"/>
<path d="M22.3334 53.3333H49" stroke="#EC5242" stroke-width="1.5" stroke-miterlimit="10" stroke-linecap="round" stroke-linejoin="round"/>
</svg>
